<svg width="171" height="32" viewBox="0 0 171 32" fill="none" xmlns="http://www.w3.org/2000/svg">
<g clip-path="url(#clip0)">
<path d="M27.9386 0L9.31348 32H18.6252L37.2503 0H27.9386Z" fill="#2D2D2D"/>
<path opacity="0.4" d="M13.9688 23.9996L18.6246 32L16.042 20.4364L13.9688 23.9996Z" fill="#1A1A1A"/>
<path d="M18.6252 0L9.31348 16.0009H0L9.31348 0H18.6252Z" fill="#5D5D5D"/>
<path d="M0 16.0009L9.31348 32H18.6252L9.31348 16.0009H0Z" fill="#4D4D4D"/>
<path d="M27.9385 0L37.2501 16.0009H46.5636L37.2501 0H27.9385Z" fill="#5D5D5D"/>
<path d="M46.5636 16.0009L37.2501 32H27.9385L37.2501 16.0009H46.5636Z" fill="#4D4D4D"/>
<path opacity="0.4" d="M32.5943 8.00044L27.9385 0L30.521 11.5636L32.5943 8.00044Z" fill="#1A1A1A"/>
</g>
<path d="M73.6024 3.73334V24.8673H70.1639V22.902C69.5717 23.6236 68.8363 24.1647 67.9575 24.5255C67.0979 24.8863 66.1428 25.0667 65.0921 25.0667C63.6212 25.0667 62.2935 24.7439 61.1092 24.0983C59.9439 23.4527 59.027 22.5412 58.3584 21.364C57.6898 20.1677 57.3555 18.8005 57.3555 17.2625C57.3555 15.7244 57.6898 14.3668 58.3584 13.1895C59.027 12.0122 59.9439 11.1008 61.1092 10.4552C62.2935 9.80959 63.6212 9.48679 65.0921 9.48679C66.1046 9.48679 67.0311 9.65768 67.8716 9.99947C68.7121 10.3413 69.4285 10.8539 70.0206 11.5375V3.73334H73.6024ZM65.5219 22.0191C66.3816 22.0191 67.1552 21.8292 67.8429 21.4494C68.5306 21.0507 69.0751 20.4905 69.4762 19.7689C69.8774 19.0474 70.078 18.2119 70.078 17.2625C70.078 16.3131 69.8774 15.4776 69.4762 14.756C69.0751 14.0345 68.5306 13.4838 67.8429 13.1041C67.1552 12.7053 66.3816 12.5059 65.5219 12.5059C64.6623 12.5059 63.8886 12.7053 63.2009 13.1041C62.5132 13.4838 61.9688 14.0345 61.5676 14.756C61.1665 15.4776 60.9659 16.3131 60.9659 17.2625C60.9659 18.2119 61.1665 19.0474 61.5676 19.7689C61.9688 20.4905 62.5132 21.0507 63.2009 21.4494C63.8886 21.8292 64.6623 22.0191 65.5219 22.0191Z" fill="#4D4D4D"/>
<path d="M94.3917 17.3479C94.3917 17.5948 94.3726 17.9461 94.3344 18.4018H82.3283C82.5384 19.5221 83.0829 20.4145 83.9616 21.0791C84.8594 21.7247 85.9674 22.0475 87.2855 22.0475C88.9665 22.0475 90.3515 21.4969 91.4404 20.3956L93.3602 22.5887C92.6725 23.4052 91.8033 24.0223 90.7527 24.4401C89.702 24.8578 88.5176 25.0667 87.1995 25.0667C85.5185 25.0667 84.038 24.7344 82.7581 24.0698C81.4782 23.4052 80.4849 22.4843 79.7781 21.307C79.0904 20.1107 78.7465 18.7626 78.7465 17.2625C78.7465 15.7814 79.0808 14.4522 79.7494 13.275C80.4371 12.0787 81.3827 11.1483 82.5862 10.4837C83.7897 9.81908 85.146 9.48679 86.6551 9.48679C88.1451 9.48679 89.4728 9.81908 90.638 10.4837C91.8224 11.1293 92.7394 12.0502 93.3889 13.2465C94.0574 14.4237 94.3917 15.7909 94.3917 17.3479ZM86.6551 12.335C85.5089 12.335 84.5347 12.6768 83.7324 13.3604C82.9492 14.025 82.4716 14.9174 82.2997 16.0377H90.9819C90.8291 14.9364 90.361 14.044 89.5778 13.3604C88.7946 12.6768 87.8204 12.335 86.6551 12.335Z" fill="#4D4D4D"/>
<path d="M104.279 25.0667C103.038 25.0667 101.825 24.9053 100.64 24.5825C99.456 24.2597 98.5104 23.8514 97.8036 23.3577L99.179 20.6519C99.8667 21.1076 100.688 21.4779 101.643 21.7627C102.618 22.0285 103.573 22.1615 104.509 22.1615C106.648 22.1615 107.718 21.6013 107.718 20.481C107.718 19.9493 107.441 19.5791 106.887 19.3702C106.352 19.1613 105.483 18.9619 104.279 18.7721C103.019 18.5822 101.987 18.3638 101.185 18.117C100.402 17.8701 99.7139 17.4429 99.1217 16.8353C98.5486 16.2086 98.2621 15.3447 98.2621 14.2434C98.2621 12.8002 98.8638 11.6515 100.067 10.797C101.29 9.92352 102.933 9.48679 104.996 9.48679C106.046 9.48679 107.097 9.61021 108.148 9.85706C109.198 10.0849 110.058 10.3982 110.727 10.797L109.351 13.5028C108.052 12.7433 106.591 12.3635 104.967 12.3635C103.917 12.3635 103.114 12.5249 102.56 12.8477C102.025 13.1515 101.758 13.5598 101.758 14.0725C101.758 14.6421 102.044 15.0504 102.618 15.2972C103.21 15.5251 104.117 15.7434 105.34 15.9523C106.562 16.1422 107.565 16.3605 108.348 16.6074C109.132 16.8542 109.8 17.272 110.354 17.8606C110.927 18.4493 111.214 19.2847 111.214 20.3671C111.214 21.7912 110.593 22.9305 109.351 23.785C108.11 24.6394 106.419 25.0667 104.279 25.0667Z" fill="#4D4D4D"/>
<path d="M131.004 3.73334V24.8673H127.565V22.902C126.973 23.6236 126.238 24.1647 125.359 24.5255C124.499 24.8863 123.544 25.0667 122.493 25.0667C121.023 25.0667 119.695 24.7439 118.511 24.0983C117.345 23.4527 116.428 22.5412 115.76 21.364C115.091 20.1677 114.757 18.8005 114.757 17.2625C114.757 15.7244 115.091 14.3668 115.76 13.1895C116.428 12.0122 117.345 11.1008 118.511 10.4552C119.695 9.80959 121.023 9.48679 122.493 9.48679C123.506 9.48679 124.432 9.65768 125.273 9.99947C126.113 10.3413 126.83 10.8539 127.422 11.5375V3.73334H131.004ZM122.923 22.0191C123.783 22.0191 124.557 21.8292 125.244 21.4494C125.932 21.0507 126.476 20.4905 126.878 19.7689C127.279 19.0474 127.479 18.2119 127.479 17.2625C127.479 16.3131 127.279 15.4776 126.878 14.756C126.476 14.0345 125.932 13.4838 125.244 13.1041C124.557 12.7053 123.783 12.5059 122.923 12.5059C122.064 12.5059 121.29 12.7053 120.602 13.1041C119.915 13.4838 119.37 14.0345 118.969 14.756C118.568 15.4776 118.367 16.3131 118.367 17.2625C118.367 18.2119 118.568 19.0474 118.969 19.7689C119.37 20.4905 119.915 21.0507 120.602 21.4494C121.29 21.8292 122.064 22.0191 122.923 22.0191Z" fill="#4D4D4D"/>
<path d="M151.793 17.3479C151.793 17.5948 151.774 17.9461 151.736 18.4018H139.73C139.94 19.5221 140.484 20.4145 141.363 21.0791C142.261 21.7247 143.369 22.0475 144.687 22.0475C146.368 22.0475 147.753 21.4969 148.842 20.3956L150.762 22.5887C150.074 23.4052 149.205 24.0223 148.154 24.4401C147.103 24.8578 145.919 25.0667 144.601 25.0667C142.92 25.0667 141.439 24.7344 140.16 24.0698C138.88 23.4052 137.886 22.4843 137.179 21.307C136.492 20.1107 136.148 18.7626 136.148 17.2625C136.148 15.7814 136.482 14.4522 137.151 13.275C137.839 12.0787 138.784 11.1483 139.988 10.4837C141.191 9.81908 142.547 9.48679 144.056 9.48679C145.547 9.48679 146.874 9.81908 148.039 10.4837C149.224 11.1293 150.141 12.0502 150.79 13.2465C151.459 14.4237 151.793 15.7909 151.793 17.3479ZM144.056 12.335C142.91 12.335 141.936 12.6768 141.134 13.3604C140.351 14.025 139.873 14.9174 139.701 16.0377H148.383C148.23 14.9364 147.762 14.044 146.979 13.3604C146.196 12.6768 145.222 12.335 144.056 12.335Z" fill="#4D4D4D"/>
<path d="M171 9.65768L164.438 24.8673H160.742L154.18 9.65768H157.905L162.662 20.9367L167.562 9.65768H171Z" fill="#4D4D4D"/>
<defs>
<clipPath id="clip0">
<rect width="46.5638" height="32" fill="white"/>
</clipPath>
</defs>
</svg>
